<svg width="720" height="307" viewBox="0 0 720 307" fill="none" xmlns="http://www.w3.org/2000/svg">
<path d="M311.51 200.52V60.9004H365.84C374.14 60.9004 381.53 61.6704 388 63.2304C394.46 64.7804 399.98 67.0704 404.54 70.1004C409.1 73.1404 412.57 76.9104 414.95 81.4204C417.34 85.9304 418.53 91.2204 418.53 97.2804C418.53 102.92 417.41 108 415.16 112.51C412.91 117.02 409.31 120.66 404.34 123.4C399.37 126.15 392.87 127.88 384.84 128.59V130.49C398.59 131.2 408.56 134.51 414.76 140.43C420.95 146.35 424.05 154.18 424.05 163.91C424.05 172.09 422.01 178.86 417.93 184.22C413.84 189.59 407.89 193.64 400.06 196.39C392.23 199.14 382.53 200.51 370.96 200.51H311.53L311.51 200.52ZM344.6 118.86H362.37C370.13 118.86 376.05 117.52 380.14 114.84C384.22 112.16 386.26 108.21 386.26 102.99C386.26 98.0604 384.42 94.3504 380.75 91.8904C377.07 89.4204 371.56 88.1904 364.21 88.1904H344.61V118.86H344.6ZM344.6 173.02H369.51C376.45 173.02 381.83 171.72 385.65 169.11C389.46 166.5 391.37 162.8 391.37 158C391.37 152.65 389.23 148.66 384.93 146.05C380.64 143.44 374.21 142.14 365.63 142.14H344.6V173.02Z" fill="white"/>
<path d="M436.9 200.519V52.4395H469.98V200.519H436.9Z" fill="white"/>
<path d="M486.73 200.52V173.5H519.81V200.52H486.73Z" fill="#0E287F"/>
<path d="M486.73 173.459V146.439H519.81V173.459H486.73Z" fill="#ED4B25"/>
<path d="M486.73 146.389V119.369H519.81V146.389H486.73Z" fill="#DEDF2B"/>
<path d="M486.73 119.321V92.3008H519.81V119.321H486.73Z" fill="#B1D4F0"/>
<path d="M486.18 79.8795V52.4395H519.26V79.8795H486.18Z" fill="white"/>
<path d="M579.65 203.06C566.99 203.06 557.56 199.71 551.37 193.01C545.17 186.31 542.08 175.91 542.08 161.81V115.48H530.24V93.9005H530.85C539.29 92.7705 545.28 89.8505 548.82 85.1205C552.36 80.4005 554.54 73.2405 555.35 63.6505V63.2305H574.75V88.8205H599.46V116.32H574.75V158.63C574.75 163.99 576.01 167.8 578.53 170.05C581.05 172.31 584.15 173.44 587.82 173.44C589.72 173.44 591.7 173.16 593.74 172.59C595.78 172.03 597.68 171.25 599.46 170.26V200.09C595.24 201.36 591.49 202.17 588.23 202.52C584.96 202.87 582.1 203.05 579.65 203.05V203.06Z" fill="white"/>
<path d="M612.33 200.52V171.75L663.59 117.6V116.33H613.35V88.8301H702.19V117.81L650.93 172.18V173.02H702.81V200.52H612.34H612.33Z" fill="white"/>
<path d="M321.943 247.682V237.094H332.367C335.76 237.094 338.277 236.41 339.919 235.042C341.615 233.674 342.463 231.403 342.463 228.229C342.463 225.274 341.697 223.058 340.165 221.581C338.633 220.103 336.307 219.365 333.188 219.365H321.943V208.776H333.845C337.019 208.776 339.946 209.159 342.627 209.925C345.363 210.637 347.716 211.813 349.686 213.455C351.711 215.042 353.271 217.039 354.365 219.447C355.514 221.854 356.089 224.754 356.089 228.147C356.089 232.47 355.104 236.082 353.134 238.982C351.219 241.882 348.4 244.071 344.679 245.548C341.013 246.971 336.499 247.682 331.136 247.682H321.943ZM312.094 262.949V208.776H325.391V262.949H312.094ZM360.739 262.949V219.611H374.036V262.949H360.739ZM367.387 215.999C364.87 215.999 362.928 215.479 361.56 214.44C360.246 213.345 359.59 211.786 359.59 209.761C359.59 207.682 360.246 206.122 361.56 205.083C362.928 203.988 364.87 203.441 367.387 203.441C369.959 203.441 371.902 203.988 373.215 205.083C374.583 206.177 375.267 207.736 375.267 209.761C375.267 211.731 374.583 213.263 373.215 214.358C371.902 215.452 369.959 215.999 367.387 215.999ZM377.831 262.949L391.749 240.864L377.998 218.946H393.583L400.167 233.53H400.75L407.167 218.946H422.668L409.251 240.864L422.835 262.949H407L400.667 248.615H400.167L393.333 262.949H377.831ZM443.825 264.116C439.714 264.116 436.241 263.533 433.408 262.366C430.63 261.199 428.352 259.588 426.574 257.532C424.796 255.476 423.518 253.115 422.74 250.448C421.962 247.781 421.573 244.92 421.573 241.864C421.573 238.642 421.99 235.586 422.823 232.697C423.657 229.808 424.935 227.252 426.657 225.03C428.379 222.752 430.602 220.974 433.324 219.696C436.047 218.418 439.269 217.779 442.992 217.779C446.714 217.779 449.909 218.418 452.576 219.696C455.298 220.974 457.465 222.779 459.076 225.113C460.743 227.391 461.826 230.085 462.326 233.197C462.882 236.253 462.882 239.614 462.326 243.281L429.991 243.698V236.447L452.409 236.03L450.159 240.114C450.492 237.558 450.437 235.419 449.992 233.697C449.548 231.919 448.742 230.586 447.575 229.697C446.409 228.752 444.881 228.28 442.992 228.28C440.991 228.28 439.352 228.808 438.075 229.863C436.797 230.919 435.88 232.419 435.324 234.364C434.769 236.308 434.491 238.614 434.491 241.281C434.491 245.781 435.269 249.059 436.824 251.115C438.436 253.171 440.797 254.199 443.908 254.199C445.242 254.199 446.353 254.032 447.242 253.698C448.186 253.31 448.937 252.81 449.492 252.198C450.048 251.532 450.437 250.754 450.659 249.865C450.937 248.976 451.076 247.976 451.076 246.865L463.327 247.865C463.382 249.698 463.104 251.587 462.493 253.532C461.882 255.421 460.826 257.171 459.326 258.782C457.882 260.338 455.882 261.616 453.326 262.616C450.826 263.616 447.659 264.116 443.825 264.116ZM468.483 262.949V204.361H481.901V262.949H468.483ZM488.667 262.949V237.947V218.946H499.918L500.001 236.114H500.835C501.279 231.669 502.057 228.113 503.168 225.446C504.335 222.779 505.863 220.835 507.752 219.612C509.697 218.39 511.975 217.779 514.586 217.779C517.364 217.779 519.614 218.446 521.336 219.779C523.059 221.057 524.337 223.057 525.17 225.78C526.059 228.446 526.504 231.891 526.504 236.114H527.254C527.698 231.669 528.559 228.113 529.837 225.446C531.115 222.779 532.754 220.835 534.754 219.612C536.754 218.39 539.088 217.779 541.755 217.779C544.033 217.779 546.005 218.223 547.672 219.112C549.394 219.946 550.839 221.224 552.006 222.946C553.172 224.613 554.033 226.752 554.589 229.363C555.145 231.919 555.422 234.919 555.422 238.364V262.949H541.921V239.614C541.921 237.392 541.727 235.53 541.338 234.03C541.005 232.53 540.449 231.419 539.671 230.697C538.893 229.919 537.921 229.53 536.754 229.53C535.254 229.53 533.893 230.169 532.671 231.447C531.448 232.725 530.448 234.641 529.67 237.197C528.948 239.697 528.587 242.864 528.587 246.698V262.949H515.419V239.364C515.419 237.142 515.225 235.308 514.836 233.864C514.447 232.419 513.864 231.336 513.086 230.613C512.308 229.891 511.336 229.53 510.169 229.53C508.669 229.53 507.308 230.113 506.085 231.28C504.918 232.391 503.974 234.225 503.252 236.78C502.529 239.281 502.168 242.586 502.168 246.698V262.949H488.667ZM582.589 264.116C578.478 264.116 575.005 263.533 572.172 262.366C569.394 261.199 567.116 259.588 565.338 257.532C563.56 255.476 562.282 253.115 561.504 250.448C560.726 247.781 560.338 244.92 560.338 241.864C560.338 238.642 560.754 235.586 561.588 232.697C562.421 229.808 563.699 227.252 565.421 225.03C567.144 222.752 569.366 220.974 572.089 219.696C574.811 218.418 578.033 217.779 581.756 217.779C585.478 217.779 588.673 218.418 591.34 219.696C594.062 220.974 596.229 222.779 597.841 225.113C599.507 227.391 600.591 230.085 601.091 233.197C601.646 236.253 601.646 239.614 601.091 243.281L568.755 243.698V236.447L591.173 236.03L588.923 240.114C589.257 237.558 589.201 235.419 588.757 233.697C588.312 231.919 587.506 230.586 586.34 229.697C585.173 228.752 583.645 228.28 581.756 228.28C579.756 228.28 578.117 228.808 576.839 229.863C575.561 230.919 574.644 232.419 574.089 234.364C573.533 236.308 573.255 238.614 573.255 241.281C573.255 245.781 574.033 249.059 575.589 251.115C577.2 253.171 579.561 254.199 582.673 254.199C584.006 254.199 585.117 254.032 586.006 253.698C586.951 253.31 587.701 252.81 588.256 252.198C588.812 251.532 589.201 250.754 589.423 249.865C589.701 248.976 589.84 247.976 589.84 246.865L602.091 247.865C602.146 249.698 601.869 251.587 601.258 253.532C600.646 255.421 599.591 257.171 598.091 258.782C596.646 260.338 594.646 261.616 592.09 262.616C589.59 263.616 586.423 264.116 582.589 264.116ZM623.241 264.116C620.019 264.116 617.102 263.255 614.49 261.532C611.935 259.755 609.907 257.115 608.407 253.615C606.962 250.115 606.24 245.753 606.24 240.531C606.24 235.53 606.906 231.363 608.24 228.03C609.573 224.641 611.462 222.085 613.907 220.362C616.407 218.64 619.352 217.779 622.741 217.779C625.297 217.779 627.547 218.307 629.492 219.362C631.492 220.418 633.131 222.057 634.409 224.279C635.686 226.502 636.603 229.419 637.159 233.03H638.076C637.798 231.141 637.52 229.308 637.242 227.53C636.964 225.696 636.742 223.946 636.575 222.279C636.409 220.557 636.325 218.973 636.325 217.529V204.361H649.827V246.531V262.949H638.242L638.159 249.448H637.409C636.798 252.671 635.853 255.393 634.575 257.615C633.353 259.782 631.797 261.421 629.908 262.533C628.019 263.588 625.797 264.116 623.241 264.116ZM627.991 253.365C629.158 253.365 630.242 253.115 631.242 252.615C632.297 252.059 633.214 251.282 633.992 250.282C634.77 249.226 635.381 247.976 635.825 246.531C636.27 245.031 636.492 243.337 636.492 241.447V240.697C636.492 239.086 636.325 237.669 635.992 236.447C635.659 235.169 635.214 234.058 634.659 233.113C634.103 232.169 633.464 231.391 632.742 230.78C632.02 230.169 631.242 229.724 630.408 229.447C629.575 229.113 628.741 228.946 627.908 228.946C626.13 228.946 624.658 229.53 623.491 230.697C622.324 231.808 621.435 233.308 620.824 235.197C620.269 237.03 619.991 239.058 619.991 241.281C619.991 243.503 620.296 245.531 620.908 247.365C621.519 249.198 622.435 250.67 623.658 251.782C624.88 252.837 626.325 253.365 627.991 253.365ZM656.487 262.949V218.946H669.988V262.949H656.487ZM663.154 215.279C660.598 215.279 658.626 214.751 657.237 213.695C655.903 212.584 655.236 211.028 655.236 209.028C655.236 206.917 655.903 205.333 657.237 204.278C658.626 203.167 660.598 202.611 663.154 202.611C665.765 202.611 667.737 203.167 669.071 204.278C670.46 205.333 671.154 206.917 671.154 209.028C671.154 211.028 670.46 212.584 669.071 213.695C667.737 214.751 665.765 215.279 663.154 215.279ZM688.169 264.116C685.891 264.116 683.752 263.727 681.752 262.949C679.808 262.116 678.196 260.81 676.919 259.032C675.696 257.254 675.085 254.921 675.085 252.032C675.085 249.365 675.585 247.198 676.585 245.531C677.641 243.809 679.058 242.448 680.836 241.447C682.669 240.392 684.669 239.614 686.836 239.114C689.058 238.558 691.281 238.058 693.503 237.614C696.226 237.114 698.281 236.725 699.67 236.447C701.059 236.114 702.004 235.725 702.504 235.28C703.06 234.78 703.337 234.114 703.337 233.28C703.337 231.724 702.754 230.53 701.587 229.697C700.42 228.808 698.837 228.363 696.837 228.363C695.559 228.363 694.309 228.613 693.086 229.113C691.864 229.558 690.836 230.335 690.003 231.447C689.225 232.558 688.836 234.114 688.836 236.114L676.835 234.864C676.891 231.586 677.502 228.835 678.669 226.613C679.891 224.391 681.474 222.64 683.419 221.363C685.419 220.085 687.614 219.168 690.003 218.612C692.448 218.057 694.892 217.779 697.337 217.779C701.726 217.779 705.337 218.585 708.171 220.196C711.005 221.807 713.088 224.141 714.422 227.196C715.811 230.252 716.505 234.002 716.505 238.447V246.115C716.505 247.948 716.505 249.809 716.505 251.698C716.505 253.587 716.505 255.476 716.505 257.365C716.561 259.199 716.616 261.06 716.672 262.949H704.921C704.921 261.06 704.893 259.116 704.837 257.115C704.837 255.06 704.81 252.948 704.754 250.782H704.087C703.81 253.171 702.948 255.393 701.504 257.449C700.059 259.504 698.198 261.144 695.92 262.366C693.698 263.533 691.114 264.116 688.169 264.116ZM693.837 254.365C694.781 254.365 695.781 254.199 696.837 253.865C697.892 253.476 698.893 252.893 699.837 252.115C700.837 251.282 701.643 250.17 702.254 248.781C702.921 247.392 703.282 245.698 703.337 243.698V240.947L705.504 240.781C705.004 241.503 704.198 242.086 703.087 242.531C702.032 242.975 700.865 243.337 699.587 243.614C698.309 243.837 697.003 244.087 695.67 244.364C694.392 244.587 693.198 244.92 692.086 245.364C691.031 245.753 690.17 246.281 689.503 246.948C688.836 247.615 688.503 248.559 688.503 249.781C688.503 251.282 689.003 252.421 690.003 253.198C691.059 253.976 692.336 254.365 693.837 254.365Z" fill="white"/>
<path d="M240.57 143.15C242.42 143.15 243.91 141.67 243.91 139.85V86.39C243.91 84.58 242.42 83.09 240.57 83.09H190.92C189.11 83.09 187.62 81.6 187.62 79.79V35.09C187.62 33.24 189.11 31.79 190.92 31.79H213.98C215.79 31.79 217.28 30.3 217.28 28.45V3.32001C217.28 1.50001 215.79 0 213.98 0H188.83C187.91 0 187.08 0.380021 186.49 0.990021C185.88 1.59002 185.51 2.41003 185.51 3.31003V26.14C185.51 27.97 184.04 29.44 182.21 29.44H86.8798C85.0298 29.44 83.5798 30.93 83.5798 32.74V79.78C83.5798 81.61 82.0899 83.08 80.2399 83.08H33.1398C31.3098 83.08 29.8398 84.57 29.8398 86.41V249.83C29.8398 251.64 31.3098 253.13 33.1398 253.13H80.2399C82.0899 253.13 83.5798 254.62 83.5798 256.43V303.53C83.5798 305.35 85.0398 306.85 86.8798 306.85H184.3C186.15 306.85 187.62 305.36 187.62 303.53V256.43C187.62 254.62 189.11 253.13 190.92 253.13H240.57C242.42 253.13 243.91 251.64 243.91 249.83V196.37C243.91 194.56 242.42 193.07 240.57 193.07H183.83V246.85C183.83 248.67 182.34 250.15 180.5 250.15H74.5798C72.7598 250.15 71.2598 248.67 71.2598 246.85V175.84H61.1798V158.16H71.2598V89.45C71.2598 87.63 72.7498 86.13 74.5798 86.13H180.5C182.33 86.13 183.83 87.62 183.83 89.45V143.15H240.57Z" fill="#DEDF2B"/>
<path d="M210.75 143.15C212.58 143.15 214.08 141.67 214.08 139.85V86.3897C214.08 84.5797 212.59 83.0898 210.75 83.0898H161.08C159.27 83.0898 157.78 81.5998 157.78 79.7898V35.0898C157.78 33.2398 159.27 31.7898 161.08 31.7898H184.14C185.96 31.7898 187.46 30.2998 187.46 28.4498V3.31976C187.46 2.40976 187.08 1.59976 186.49 0.999756C185.89 0.389756 185.06 0.00976562 184.14 0.00976562H158.99C157.17 0.00976562 155.67 1.49977 155.67 3.32977V26.1598C155.67 27.9898 154.21 29.4598 152.37 29.4598H57.04C55.21 29.4598 53.74 30.9498 53.74 32.7598V79.7998C53.74 81.6298 52.25 83.0998 50.4 83.0998H3.31999C1.46999 83.0998 0 84.5898 0 86.4298V249.85C0 251.66 1.46999 253.15 3.31999 253.15H50.4C52.25 253.15 53.74 254.64 53.74 256.45V303.55C53.74 305.37 55.21 306.87 57.04 306.87H154.46C156.31 306.87 157.78 305.38 157.78 303.55V256.45C157.78 254.64 159.27 253.15 161.08 253.15H210.75C212.58 253.15 214.08 251.66 214.08 249.85V196.39C214.08 194.58 212.59 193.09 210.75 193.09H168.61V246.87C168.61 248.69 167.12 250.17 165.28 250.17H59.98C58.16 250.17 56.68 248.69 56.68 246.87V175.86H46.59V158.18H56.68V89.4698C56.68 87.6498 58.16 86.1497 59.98 86.1497H165.28C167.11 86.1497 168.61 87.6398 168.61 89.4698V143.17H210.75V143.15Z" fill="#B1D4F0"/>
<path d="M217.86 143.15C219.69 143.15 221.19 141.67 221.19 139.85V86.39C221.19 84.58 219.7 83.09 217.86 83.09H168.19C166.38 83.09 164.89 81.6 164.89 79.79V35.09C164.89 33.24 166.38 31.79 168.19 31.79H191.25C193.07 31.79 194.57 30.3 194.57 28.45V3.32001C194.57 1.50001 193.08 0 191.25 0H166.1C164.28 0 162.8 1.49001 162.8 3.32001V26.15C162.8 27.98 161.33 29.45 159.48 29.45H64.1501C62.3201 29.45 60.8501 30.94 60.8501 32.75V79.79C60.8501 81.62 59.3601 83.09 57.5201 83.09H10.4201C8.5701 83.09 7.1001 84.58 7.1001 86.42V249.84C7.1001 251.65 8.5701 253.14 10.4201 253.14H57.5201C59.3501 253.14 60.8501 254.63 60.8501 256.44V303.54C60.8501 305.36 62.3201 306.86 64.1501 306.86H161.58C163.41 306.86 164.88 305.37 164.88 303.54V256.44C164.88 254.63 166.37 253.14 168.18 253.14H217.85C219.68 253.14 221.18 251.65 221.18 249.84V196.38C221.18 194.57 219.69 193.08 217.85 193.08H168.6V246.86C168.6 248.68 167.11 250.16 165.27 250.16H67.0801C65.2701 250.16 63.7801 248.68 63.7801 246.86V175.85H53.6901V158.17H63.7801V89.46C63.7801 87.64 65.2701 86.14 67.0801 86.14H165.27C167.1 86.14 168.6 87.63 168.6 89.46V143.16H217.85L217.86 143.15Z" fill="#0E287F"/>
<path d="M233.12 143.15C234.97 143.15 236.46 141.67 236.46 139.85V86.39C236.46 84.58 234.97 83.09 233.12 83.09H183.47C181.66 83.09 180.17 81.6 180.17 79.79V35.09C180.17 33.24 181.66 31.79 183.47 31.79H206.53C208.35 31.79 209.83 30.3 209.83 28.45V3.32001C209.83 1.50001 208.35 0 206.53 0H181.38C179.56 0 178.06 1.49001 178.06 3.32001V26.15C178.06 27.98 176.59 29.45 174.76 29.45H79.4301C77.6001 29.45 76.1301 30.94 76.1301 32.75V79.79C76.1301 81.62 74.6401 83.09 72.7901 83.09H25.6901C23.8601 83.09 22.3901 84.58 22.3901 86.42V249.84C22.3901 251.65 23.8601 253.14 25.6901 253.14H72.7901C74.6401 253.14 76.1301 254.63 76.1301 256.44V303.54C76.1301 305.36 77.6001 306.86 79.4301 306.86H176.85C178.7 306.86 180.17 305.37 180.17 303.54V256.44C180.17 254.63 181.66 253.14 183.47 253.14H233.12C234.97 253.14 236.46 251.65 236.46 249.84V196.38C236.46 194.57 234.97 193.08 233.12 193.08H176.38V246.86C176.38 248.68 174.89 250.16 173.05 250.16H74.5801C72.7601 250.16 71.2601 248.68 71.2601 246.86V175.85H61.1801V158.17H71.2601V89.46C71.2601 87.64 72.7501 86.14 74.5801 86.14H173.05C174.88 86.14 176.38 87.63 176.38 89.46V143.16H233.12V143.15Z" fill="#ED4B25"/>
<path d="M225.34 143.15C227.19 143.15 228.68 141.67 228.68 139.85V86.39C228.68 84.58 227.19 83.09 225.34 83.09H175.69C173.88 83.09 172.39 81.6 172.39 79.79V35.09C172.39 33.24 173.88 31.79 175.69 31.79H198.75C200.57 31.79 202.05 30.3 202.05 28.45V3.32001C202.05 1.50001 200.57 0 198.75 0H173.6C171.78 0 170.28 1.49001 170.28 3.32001V26.15C170.28 27.98 168.81 29.45 166.98 29.45H71.6499C69.8199 29.45 68.3499 30.94 68.3499 32.75V79.79C68.3499 81.62 66.8599 83.09 65.0099 83.09H17.9099C16.0799 83.09 14.6099 84.58 14.6099 86.42V249.84C14.6099 251.65 16.0799 253.14 17.9099 253.14H65.0099C66.8599 253.14 68.3499 254.63 68.3499 256.44V303.54C68.3499 305.36 69.8199 306.86 71.6499 306.86H169.07C170.92 306.86 172.39 305.37 172.39 303.54V256.44C172.39 254.63 173.88 253.14 175.69 253.14H225.34C227.19 253.14 228.68 251.65 228.68 249.84V196.38C228.68 194.57 227.19 193.08 225.34 193.08H168.6V246.86C168.6 248.68 167.11 250.16 165.27 250.16H74.5799C72.7599 250.16 71.2599 248.68 71.2599 246.86V175.85H61.1799V158.17H71.2599V89.46C71.2599 87.64 72.7499 86.14 74.5799 86.14H165.27C167.1 86.14 168.6 87.63 168.6 89.46V143.16H225.34V143.15Z" fill="white"/>
<path d="M83.1799 192.33L90.7399 196.1L86.8599 201.56V201.58L86.8399 201.59L55.2899 201.54L32.8899 169.59C32.3299 168.77 32.3099 167.6 32.8899 166.78L54.5499 135.85C54.9199 135.32 55.9399 134.77 56.5899 134.77H74.7299L86.8299 134.78C88.3699 136.58 89.6699 138.41 90.7699 140.27L83.1899 144.06C72.3499 150.23 62.9199 158.42 54.7999 168.15C62.9099 177.99 72.3999 186.03 83.1799 192.32V192.33Z" fill="#B1D4F0"/>
<path d="M97.1201 192.329L104.68 196.099L100.8 201.559L87.4501 201.539L65.0501 169.589C64.4801 168.779 64.4801 167.609 65.0501 166.789L86.7001 135.859C87.0501 135.359 88.0301 134.819 88.6701 134.799C88.6801 134.789 88.6901 134.789 88.7101 134.789H100.77C102.31 136.599 103.61 138.439 104.71 140.289L97.13 144.079C86.29 150.249 76.86 158.439 68.74 168.169C76.85 178.009 86.3401 186.049 97.1201 192.339V192.329Z" fill="#DEDF2B"/>
<path d="M89.5501 192.33L97.1101 196.1L93.2301 201.56V201.58L93.2101 201.59L61.66 201.54L39.2601 169.59C38.7001 168.77 38.6801 167.6 39.2601 166.78L60.9201 135.85C61.2901 135.32 62.31 134.77 62.96 134.77H81.1L93.2001 134.78C94.7401 136.58 96.0401 138.41 97.1401 140.27L89.56 144.06C78.72 150.23 69.2901 158.42 61.1701 168.15C69.2801 177.99 78.7701 186.03 89.5501 192.32V192.33Z" fill="#0E287F"/>
<path d="M154.83 201.6L150.77 196.13C164.87 189.74 176.82 180.15 186.77 168.17C178.72 158.49 169.38 150.38 158.64 144.21L150.75 140.21L154.77 134.77L186.29 134.83L208.85 167.03C209.4 167.81 209.05 169.07 208.53 169.81L186.28 201.54L154.83 201.61V201.6Z" fill="#DEDF2B"/>
<path d="M126.11 184.191C125.73 184.171 125.35 184.131 124.97 184.081C124.26 183.981 123.55 183.851 122.87 183.651C116.44 181.891 111.52 176.161 111.09 169.371C111.3 169.381 111.52 169.391 111.74 169.381C111.96 169.381 112.18 169.371 112.41 169.341C112.84 169.291 113.27 169.221 113.68 169.101C114.45 168.901 115.18 168.591 115.86 168.171C116.51 168.591 117.18 168.901 117.9 169.101C118.81 169.371 119.78 169.451 120.84 169.341C124.51 168.951 127.56 166.151 128.16 162.561C128.83 158.521 126.83 155.261 122.53 152.981L123.19 152.761C123.88 152.551 124.57 152.391 125.26 152.301C133.85 150.981 141.99 157.621 143.01 166.181C144.22 176.271 136.06 184.771 126.12 184.171L126.11 184.191Z" fill="#DEDF2B"/>
<path d="M145.69 201.609L141.63 196.139C155.73 189.749 167.68 180.159 177.63 168.179C169.58 158.499 160.24 150.389 149.5 144.219L141.61 140.219L145.63 134.779L177.15 134.839L199.71 167.039C200.26 167.819 199.91 169.079 199.39 169.819L177.14 201.549L145.69 201.619V201.609Z" fill="#ED4B25"/>
<path d="M127.43 183.549C126.63 183.779 125.82 183.969 124.97 184.079C123.97 184.209 122.93 184.259 121.86 184.199C121.48 184.179 121.1 184.139 120.72 184.079C119.89 183.979 119.08 183.799 118.29 183.569C117.84 183.439 117.4 183.289 116.97 183.109C115.83 182.669 114.77 182.089 113.78 181.409C109.85 178.709 107.16 174.339 106.84 169.399C107.06 169.399 107.28 169.389 107.51 169.359C108.07 169.299 108.61 169.189 109.14 169.019C109.75 169.229 110.4 169.349 111.08 169.389C111.29 169.399 111.51 169.409 111.73 169.399C111.95 169.399 112.17 169.389 112.4 169.359C112.83 169.309 113.26 169.239 113.67 169.119C114.39 169.339 115.15 169.429 115.97 169.399C116.17 169.399 116.37 169.389 116.58 169.359C117.02 169.309 117.46 169.239 117.89 169.119C118.8 168.879 119.65 168.479 120.41 167.959C120.52 167.889 120.63 167.809 120.73 167.729C122.38 166.509 123.56 164.679 123.9 162.589C124.18 160.879 123.99 159.299 123.33 157.879C122.46 155.959 120.75 154.329 118.28 153.019C118.4 152.969 118.54 152.929 118.66 152.889C119.47 152.629 120.26 152.439 121.07 152.329C122.49 152.109 123.9 152.119 125.25 152.329C126.09 152.439 126.94 152.639 127.75 152.899C133.47 154.749 138.01 159.969 138.76 166.219C139.74 174.329 134.64 181.429 127.43 183.569V183.549Z" fill="#ED4B25"/>
<path d="M176.64 169.321C176.57 169.491 176.47 169.651 176.37 169.801L162.27 189.911L154.44 201.081L154.12 201.531L145.65 201.551H136.57L132.53 196.131C146.63 189.731 158.59 180.141 168.53 168.171C160.48 158.491 151.15 150.381 140.39 144.221L132.51 140.221L136.5 134.801H145.56L154.1 134.821L154.39 135.241L162.19 146.381L176.66 167.021C176.66 167.021 176.72 167.111 176.73 167.151C177.08 167.771 176.94 168.641 176.61 169.321H176.64Z" fill="#B1D4F0"/>
<path d="M126.85 167.71V167.77C126.98 173.41 124.22 178.41 119.94 181.36C119.93 181.37 119.9 181.38 119.89 181.4C119.23 181.87 118.53 182.27 117.8 182.62C117.02 183 116.2 183.32 115.35 183.56C115.24 183.6 115.15 183.62 115.03 183.65C114.92 183.69 114.81 183.71 114.7 183.74C114.47 183.8 114.24 183.86 113.99 183.91H113.98C113.63 183.98 113.26 184.03 112.89 184.08C112.83 184.09 112.77 184.09 112.71 184.1C111.78 184.22 110.83 184.26 109.85 184.2C100 183.6 92.3101 173.9 95.5101 163.61C96.4801 165.21 97.5301 166.56 98.7301 167.55C99.4901 168.16 100.28 168.65 101.16 168.96C101.21 168.97 101.26 169 101.31 169.01C101.74 169.16 102.18 169.25 102.64 169.32C102.84 169.36 103.04 169.37 103.25 169.38C103.46 169.39 103.68 169.4 103.9 169.39C104.12 169.39 104.34 169.38 104.57 169.35C104.95 169.31 105.32 169.24 105.68 169.14C105.73 169.13 105.79 169.12 105.84 169.1C106.22 169 106.6 168.88 106.97 168.72C107.23 168.61 107.47 168.49 107.7 168.35C107.75 168.37 107.79 168.4 107.83 168.42C108.25 168.65 108.67 168.85 109.13 168.99C109.28 169.04 109.44 169.09 109.59 169.12C109.59 169.13 109.6 169.12 109.6 169.12C110.07 169.25 110.55 169.33 111.07 169.35C111.28 169.36 111.5 169.37 111.72 169.36C111.94 169.36 112.16 169.35 112.39 169.32C112.72 169.28 113.06 169.23 113.38 169.14C113.48 169.13 113.56 169.1 113.66 169.08C114 168.99 114.33 168.88 114.65 168.75C114.85 168.85 115.04 168.92 115.24 168.98C115.63 169.11 116.04 169.21 116.45 169.26C116.68 169.31 116.94 169.33 117.18 169.35C117.39 169.36 117.61 169.37 117.83 169.36C118.05 169.36 118.27 169.35 118.5 169.32C118.93 169.27 119.36 169.2 119.77 169.08C120.54 168.88 121.27 168.57 121.95 168.15C122.07 168.09 122.18 168.02 122.29 167.94C124.11 166.72 125.43 164.78 125.8 162.55V162.5C126.27 163.67 126.57 164.91 126.73 166.18C126.78 166.68 126.82 167.2 126.83 167.68L126.85 167.71Z" fill="#B1D4F0"/>
<path d="M130.78 167.771C130.91 173.411 128.15 178.411 123.87 181.361C122.87 182.071 121.79 182.661 120.64 183.101C120.2 183.281 119.75 183.431 119.28 183.561C119.17 183.601 119.08 183.621 118.96 183.651C118.81 183.701 118.67 183.741 118.52 183.771C117.97 183.901 117.39 184.001 116.82 184.081C116.76 184.091 116.71 184.091 116.65 184.101C115.72 184.221 114.75 184.261 113.78 184.201C113.43 184.181 113.07 184.141 112.72 184.101C112.33 184.051 111.94 183.981 111.56 183.901H111.55C104.48 182.441 99.0001 176.281 98.7301 168.951C98.7101 168.491 98.7201 168.011 98.7401 167.541C98.8001 166.241 99.0301 164.921 99.4501 163.601C100.4 165.191 101.46 166.521 102.64 167.501C103.24 168.001 103.86 168.411 104.54 168.711C104.77 168.821 105 168.911 105.25 168.991C105.4 169.041 105.54 169.091 105.7 169.121C105.91 169.181 106.12 169.221 106.32 169.251C106.6 169.301 106.89 169.341 107.19 169.351C107.4 169.361 107.62 169.371 107.84 169.361C108.06 169.361 108.28 169.351 108.51 169.321C108.88 169.281 109.26 169.221 109.61 169.111C109.61 169.121 109.62 169.111 109.62 169.111C110.09 169.241 110.57 169.321 111.09 169.341C111.3 169.351 111.52 169.361 111.74 169.351C111.96 169.351 112.18 169.341 112.41 169.311C112.74 169.271 113.08 169.221 113.4 169.131C113.84 169.251 114.29 169.311 114.76 169.341C114.97 169.351 115.19 169.361 115.41 169.351C115.63 169.351 115.85 169.341 116.08 169.311C116.21 169.301 116.35 169.271 116.47 169.251C116.76 169.211 117.06 169.151 117.35 169.071C118.12 168.871 118.85 168.561 119.53 168.141C119.65 168.081 119.76 168.011 119.87 167.931C121.69 166.711 123.01 164.771 123.38 162.541V162.491C124.05 158.481 122.05 155.241 117.75 152.971C118.13 152.841 118.5 152.731 118.88 152.631C119.01 152.651 119.15 152.691 119.28 152.741C119.4 152.761 119.52 152.801 119.65 152.841C122.51 153.771 125.07 155.531 127 157.831C128.97 160.151 130.29 163.041 130.67 166.171C130.73 166.701 130.77 167.221 130.78 167.741V167.771Z" fill="#0E287F"/>
<path d="M97.1199 192.33L104.68 196.1L100.8 201.56V201.58L100.78 201.59L69.2299 201.54L46.8299 169.59C46.2699 168.77 46.2499 167.6 46.8299 166.78L68.4899 135.85C68.8599 135.32 69.8799 134.77 70.5299 134.77H88.6699L100.77 134.78C102.31 136.58 103.61 138.41 104.71 140.27L97.1299 144.06C86.2899 150.23 76.8599 158.42 68.7399 168.15C76.8499 177.99 86.3399 186.03 97.1199 192.32V192.33Z" fill="white"/>
<path d="M190.31 169.799L168.07 201.529L154.8 201.569H145.69L136.61 201.609H136.6L136.59 201.569L132.55 196.139C146.65 189.739 158.61 180.149 168.55 168.179C160.5 158.499 151.17 150.389 140.41 144.229L132.53 140.229L136.52 134.809V134.789L136.54 134.779H145.6L154.74 134.819L168.06 134.839L190.62 167.039C191.17 167.819 190.82 169.079 190.3 169.819L190.31 169.799Z" fill="white"/>
<path d="M134.68 167.77C134.81 173.41 132.05 178.41 127.77 181.36C126.39 182.34 124.83 183.08 123.18 183.56C123.07 183.6 122.97 183.62 122.86 183.65C122.17 183.86 121.45 183.99 120.72 184.08C119.73 184.23 118.71 184.26 117.67 184.2C117.33 184.18 116.98 184.15 116.64 184.1C116.03 184.03 115.43 183.92 114.84 183.77L114.69 183.73C113.64 183.46 112.62 183.08 111.67 182.62C106.61 180.16 102.97 175.13 102.63 169.31V169.27C102.58 168.74 102.58 168.22 102.61 167.69C102.61 167.63 102.61 167.57 102.62 167.51C102.69 166.24 102.93 164.93 103.33 163.61C103.73 164.29 104.17 164.93 104.61 165.52C105.54 166.72 106.55 167.7 107.69 168.36C107.74 168.38 107.78 168.41 107.82 168.43C108.24 168.66 108.66 168.86 109.12 169C109.27 169.05 109.43 169.1 109.58 169.13C109.58 169.14 109.59 169.13 109.59 169.13C110.06 169.26 110.54 169.34 111.06 169.36C111.27 169.37 111.49 169.38 111.71 169.37C111.93 169.37 112.15 169.36 112.38 169.33C112.71 169.29 113.05 169.24 113.37 169.15C113.47 169.14 113.55 169.11 113.65 169.09C113.99 169 114.32 168.89 114.64 168.76C115.06 168.6 115.45 168.39 115.83 168.16C115.95 168.1 116.06 168.03 116.17 167.95C117.99 166.73 119.31 164.79 119.68 162.56V162.51C120.35 158.5 118.35 155.26 114.05 152.99C114.43 152.86 114.8 152.75 115.18 152.65C117.16 152.11 119.14 152.01 121.04 152.3C121.76 152.4 122.47 152.54 123.16 152.76C123.28 152.78 123.4 152.82 123.53 152.86C129.27 154.72 133.81 159.94 134.55 166.19C134.61 166.72 134.65 167.24 134.66 167.76L134.68 167.77Z" fill="white"/>
</svg>
