<?xml version="1.0" encoding="UTF-8"?>
<svg id="Layer_1" data-name="Layer 1" xmlns="http://www.w3.org/2000/svg" viewBox="0 0 1080 1080">
  <defs>
    <style>
      .cls-1 {
        letter-spacing: .01em;
      }

      .cls-2 {
        fill: #b1d4f0;
      }

      .cls-3, .cls-4 {
        fill: #fff;
      }

      .cls-5 {
        fill: #ed4b25;
      }

      .cls-6 {
        fill: #dedf2b;
      }

      .cls-7 {
        letter-spacing: .01em;
      }

      .cls-8 {
        letter-spacing: .01em;
      }

      .cls-9 {
        letter-spacing: -.04em;
      }

      .cls-4 {
        font-family: BricolageGrotesque-96ptExtraBold, 'Bricolage Grotesque';
        font-size: 83.34px;
        font-variation-settings: 'opsz' 96, 'wght' 800, 'wdth' 100;
        font-weight: 700;
      }

      .cls-10 {
        fill: #0e287f;
      }
    </style>
  </defs>
  <path class="cls-3" d="M493.78,651.6v-139.62h54.33c8.3,0,15.69.77,22.16,2.33,6.46,1.55,11.98,3.84,16.54,6.87,4.56,3.04,8.03,6.81,10.41,11.32,2.39,4.51,3.58,9.8,3.58,15.86,0,5.64-1.12,10.72-3.37,15.23-2.25,4.51-5.85,8.15-10.82,10.89-4.97,2.75-11.47,4.48-19.5,5.19v1.9c13.75.71,23.72,4.02,29.92,9.94,6.19,5.92,9.29,13.75,9.29,23.48,0,8.18-2.04,14.95-6.12,20.31-4.09,5.37-10.04,9.42-17.87,12.17-7.83,2.75-17.53,4.12-29.1,4.12h-59.43ZM526.87,569.94h17.77c7.76,0,13.68-1.34,17.77-4.02,4.08-2.68,6.12-6.63,6.12-11.85,0-4.93-1.84-8.64-5.51-11.1-3.68-2.47-9.19-3.7-16.54-3.7h-19.6v30.67ZM526.87,624.1h24.91c6.94,0,12.32-1.3,16.14-3.91,3.81-2.61,5.72-6.31,5.72-11.11,0-5.35-2.14-9.34-6.44-11.95-4.29-2.61-10.72-3.91-19.3-3.91h-21.03v30.88Z"/>
  <path class="cls-3" d="M619.17,651.6v-148.08h33.08v148.08h-33.08Z"/>
  <path class="cls-10" d="M669,651.6v-27.02h33.08v27.02h-33.08Z"/>
  <path class="cls-5" d="M669,624.54v-27.02h33.08v27.02h-33.08Z"/>
  <path class="cls-6" d="M669,597.47v-27.02h33.08v27.02h-33.08Z"/>
  <path class="cls-2" d="M669,570.4v-27.02h33.08v27.02h-33.08Z"/>
  <path class="cls-3" d="M668.45,530.96v-27.44h33.08v27.44h-33.08Z"/>
  <path class="cls-3" d="M761.92,654.14c-12.66,0-22.09-3.35-28.28-10.05-6.2-6.7-9.29-17.1-9.29-31.2v-46.33h-11.84v-21.58h.61c8.44-1.13,14.43-4.05,17.97-8.78,3.54-4.72,5.72-11.88,6.53-21.47v-.42h19.4v25.59h24.71v27.5h-24.71v42.31c0,5.36,1.26,9.17,3.78,11.42,2.52,2.26,5.62,3.39,9.29,3.39,1.9,0,3.88-.28,5.92-.85,2.04-.56,3.94-1.34,5.72-2.33v29.83c-4.22,1.27-7.97,2.08-11.23,2.43-3.27.35-6.13.53-8.58.53Z"/>
  <path class="cls-3" d="M794.6,651.6v-28.77l51.26-54.15v-1.27h-50.24v-27.5h88.84v28.98l-51.26,54.37v.84h51.88v27.5h-90.47Z"/>
  <text class="cls-4" transform="translate(490.67 719.37) scale(.97 1)"><tspan class="cls-1" x="0" y="0">Pi</tspan><tspan class="cls-9" x="70.01" y="0">x</tspan><tspan class="cls-7" x="112.09" y="0">e</tspan><tspan class="cls-1" x="157.85" y="0">lm</tspan><tspan class="cls-8" x="250.69" y="0">e</tspan><tspan class="cls-1" x="296.69" y="0">dia</tspan></text>
  <path class="cls-6" d="M422.84,594.23c1.85,0,3.34-1.48,3.34-3.3v-53.46c0-1.81-1.49-3.3-3.34-3.3h-49.65c-1.81,0-3.3-1.49-3.3-3.3v-44.7c0-1.85,1.49-3.3,3.3-3.3h23.06c1.81,0,3.3-1.49,3.3-3.34v-25.13c0-1.82-1.49-3.32-3.3-3.32h-25.15c-.92,0-1.75.38-2.34.99-.61.6-.98,1.42-.98,2.32v22.83c0,1.83-1.47,3.3-3.3,3.3h-95.33c-1.85,0-3.3,1.49-3.3,3.3v47.04c0,1.83-1.49,3.3-3.34,3.3h-47.1c-1.83,0-3.3,1.49-3.3,3.33v163.42c0,1.81,1.47,3.3,3.3,3.3h47.1c1.85,0,3.34,1.49,3.34,3.3v47.1c0,1.82,1.46,3.32,3.3,3.32h97.42c1.85,0,3.32-1.49,3.32-3.32v-47.1c0-1.81,1.49-3.3,3.3-3.3h49.65c1.85,0,3.34-1.49,3.34-3.3v-53.46c0-1.81-1.49-3.3-3.34-3.3h-56.74v53.78c0,1.82-1.49,3.3-3.33,3.3h-105.92c-1.82,0-3.32-1.48-3.32-3.3v-71.01h-10.08v-17.68h10.08v-68.71c0-1.82,1.49-3.32,3.32-3.32h105.92c1.83,0,3.33,1.49,3.33,3.32v53.7h56.74Z"/>
  <path class="cls-2" d="M393.02,594.23c1.83,0,3.33-1.48,3.33-3.3v-53.46c0-1.81-1.49-3.3-3.33-3.3h-49.67c-1.81,0-3.3-1.49-3.3-3.3v-44.7c0-1.85,1.49-3.3,3.3-3.3h23.06c1.82,0,3.32-1.49,3.32-3.34v-25.13c0-.91-.38-1.72-.97-2.32-.6-.61-1.43-.99-2.35-.99h-25.15c-1.82,0-3.32,1.49-3.32,3.32v22.83c0,1.83-1.46,3.3-3.3,3.3h-95.33c-1.83,0-3.3,1.49-3.3,3.3v47.04c0,1.83-1.49,3.3-3.34,3.3h-47.08c-1.85,0-3.32,1.49-3.32,3.33v163.42c0,1.81,1.47,3.3,3.32,3.3h47.08c1.85,0,3.34,1.49,3.34,3.3v47.1c0,1.82,1.47,3.32,3.3,3.32h97.42c1.85,0,3.32-1.49,3.32-3.32v-47.1c0-1.81,1.49-3.3,3.3-3.3h49.67c1.83,0,3.33-1.49,3.33-3.3v-53.46c0-1.81-1.49-3.3-3.33-3.3h-42.14v53.78c0,1.82-1.49,3.3-3.33,3.3h-105.3c-1.82,0-3.3-1.48-3.3-3.3v-71.01h-10.09v-17.68h10.09v-68.71c0-1.82,1.48-3.32,3.3-3.32h105.3c1.83,0,3.33,1.49,3.33,3.32v53.7h42.14Z"/>
  <path class="cls-10" d="M400.13,594.23c1.83,0,3.33-1.48,3.33-3.3v-53.46c0-1.81-1.49-3.3-3.33-3.3h-49.67c-1.81,0-3.3-1.49-3.3-3.3v-44.7c0-1.85,1.49-3.3,3.3-3.3h23.06c1.82,0,3.32-1.49,3.32-3.34v-25.13c0-1.82-1.49-3.32-3.32-3.32h-25.15c-1.82,0-3.3,1.49-3.3,3.32v22.83c0,1.83-1.47,3.3-3.32,3.3h-95.33c-1.83,0-3.3,1.49-3.3,3.3v47.04c0,1.83-1.49,3.3-3.33,3.3h-47.1c-1.85,0-3.32,1.49-3.32,3.33v163.42c0,1.81,1.47,3.3,3.32,3.3h47.1c1.83,0,3.33,1.49,3.33,3.3v47.1c0,1.82,1.47,3.32,3.3,3.32h97.43c1.83,0,3.3-1.49,3.3-3.32v-47.1c0-1.81,1.49-3.3,3.3-3.3h49.67c1.83,0,3.33-1.49,3.33-3.3v-53.46c0-1.81-1.49-3.3-3.33-3.3h-49.25v53.78c0,1.82-1.49,3.3-3.33,3.3h-98.19c-1.81,0-3.3-1.48-3.3-3.3v-71.01h-10.09v-17.68h10.09v-68.71c0-1.82,1.49-3.32,3.3-3.32h98.19c1.83,0,3.33,1.49,3.33,3.32v53.7h49.25Z"/>
  <path class="cls-5" d="M415.39,594.23c1.85,0,3.34-1.48,3.34-3.3v-53.46c0-1.81-1.49-3.3-3.34-3.3h-49.65c-1.81,0-3.3-1.49-3.3-3.3v-44.7c0-1.85,1.49-3.3,3.3-3.3h23.06c1.82,0,3.3-1.49,3.3-3.34v-25.13c0-1.82-1.48-3.32-3.3-3.32h-25.15c-1.82,0-3.32,1.49-3.32,3.32v22.83c0,1.83-1.47,3.3-3.3,3.3h-95.33c-1.83,0-3.3,1.49-3.3,3.3v47.04c0,1.83-1.49,3.3-3.34,3.3h-47.1c-1.83,0-3.3,1.49-3.3,3.33v163.42c0,1.81,1.47,3.3,3.3,3.3h47.1c1.85,0,3.34,1.49,3.34,3.3v47.1c0,1.82,1.47,3.32,3.3,3.32h97.42c1.85,0,3.32-1.49,3.32-3.32v-47.1c0-1.81,1.49-3.3,3.3-3.3h49.65c1.85,0,3.34-1.49,3.34-3.3v-53.46c0-1.81-1.49-3.3-3.34-3.3h-56.74v53.78c0,1.82-1.49,3.3-3.33,3.3h-98.47c-1.82,0-3.32-1.48-3.32-3.3v-71.01h-10.08v-17.68h10.08v-68.71c0-1.82,1.49-3.32,3.32-3.32h98.47c1.83,0,3.33,1.49,3.33,3.32v53.7h56.74Z"/>
  <path class="cls-3" d="M407.61,594.23c1.85,0,3.34-1.48,3.34-3.3v-53.46c0-1.81-1.49-3.3-3.34-3.3h-49.65c-1.81,0-3.3-1.49-3.3-3.3v-44.7c0-1.85,1.49-3.3,3.3-3.3h23.06c1.82,0,3.3-1.49,3.3-3.34v-25.13c0-1.82-1.48-3.32-3.3-3.32h-25.15c-1.82,0-3.32,1.49-3.32,3.32v22.83c0,1.83-1.47,3.3-3.3,3.3h-95.33c-1.83,0-3.3,1.49-3.3,3.3v47.04c0,1.83-1.49,3.3-3.34,3.3h-47.1c-1.83,0-3.3,1.49-3.3,3.33v163.42c0,1.81,1.47,3.3,3.3,3.3h47.1c1.85,0,3.34,1.49,3.34,3.3v47.1c0,1.82,1.47,3.32,3.3,3.32h97.42c1.85,0,3.32-1.49,3.32-3.32v-47.1c0-1.81,1.49-3.3,3.3-3.3h49.65c1.85,0,3.34-1.49,3.34-3.3v-53.46c0-1.81-1.49-3.3-3.34-3.3h-56.74v53.78c0,1.82-1.49,3.3-3.33,3.3h-90.69c-1.82,0-3.32-1.48-3.32-3.3v-71.01h-10.08v-17.68h10.08v-68.71c0-1.82,1.49-3.32,3.32-3.32h90.69c1.83,0,3.33,1.49,3.33,3.32v53.7h56.74Z"/>
  <path class="cls-2" d="M265.45,643.41l7.56,3.77-3.88,5.46v.02s-.02.01-.02.01l-31.55-.05-22.4-31.95c-.56-.82-.58-1.99,0-2.81l21.66-30.93c.37-.53,1.39-1.08,2.04-1.08h18.14s12.1.01,12.1.01c1.54,1.8,2.84,3.63,3.94,5.49l-7.58,3.79c-10.84,6.17-20.27,14.36-28.39,24.09,8.11,9.84,17.6,17.88,28.38,24.17Z"/>
  <path class="cls-6" d="M279.39,643.41l7.56,3.77-3.88,5.46-13.35-.02-22.4-31.95c-.57-.81-.57-1.98,0-2.8l21.65-30.93c.35-.5,1.33-1.04,1.97-1.06.01-.01.02-.01.04-.01h12.06c1.54,1.81,2.84,3.65,3.94,5.5l-7.58,3.79c-10.84,6.17-20.27,14.36-28.39,24.09,8.11,9.84,17.6,17.88,28.38,24.17Z"/>
  <path class="cls-10" d="M271.82,643.41l7.56,3.77-3.88,5.46v.02s-.02.01-.02.01l-31.55-.05-22.4-31.95c-.56-.82-.58-1.99,0-2.81l21.66-30.93c.37-.53,1.39-1.08,2.04-1.08h18.14s12.1.01,12.1.01c1.54,1.8,2.84,3.63,3.94,5.49l-7.58,3.79c-10.84,6.17-20.27,14.36-28.39,24.09,8.11,9.84,17.6,17.88,28.38,24.17Z"/>
  <path class="cls-6" d="M337.1,652.68l-4.06-5.47c14.1-6.39,26.05-15.98,36-27.96-8.05-9.68-17.39-17.79-28.13-23.96l-7.89-4,4.02-5.44,31.52.06,22.56,32.2c.55.78.2,2.04-.32,2.78l-22.25,31.73-31.45.07Z"/>
  <path class="cls-6" d="M308.38,635.27c-.38-.02-.76-.06-1.14-.11-.71-.1-1.42-.23-2.1-.43-6.43-1.76-11.35-7.49-11.78-14.28.21.01.43.02.65.01.22,0,.44-.01.67-.04.43-.05.86-.12,1.27-.24.77-.2,1.5-.51,2.18-.93.65.42,1.32.73,2.04.93.91.27,1.88.35,2.94.24,3.67-.39,6.72-3.19,7.32-6.78.67-4.04-1.33-7.3-5.63-9.58l.66-.22c.69-.21,1.38-.37,2.07-.46,8.59-1.32,16.73,5.32,17.75,13.88,1.21,10.09-6.95,18.59-16.89,17.99Z"/>
  <path class="cls-5" d="M327.96,652.69l-4.06-5.47c14.1-6.39,26.05-15.98,36-27.96-8.05-9.68-17.39-17.79-28.13-23.96l-7.89-4,4.02-5.44,31.52.06,22.56,32.2c.55.78.2,2.04-.32,2.78l-22.25,31.73-31.45.07Z"/>
  <path class="cls-5" d="M309.7,634.63c-.8.23-1.61.42-2.46.53-1,.13-2.04.18-3.11.12-.38-.02-.76-.06-1.14-.12-.83-.1-1.64-.28-2.43-.51-.45-.13-.89-.28-1.32-.46-1.14-.44-2.2-1.02-3.19-1.7-3.93-2.7-6.62-7.07-6.94-12.01.22,0,.44-.01.67-.04.56-.06,1.1-.17,1.63-.34.61.21,1.26.33,1.94.37.21.01.43.02.65.01.22,0,.44-.01.67-.04.43-.05.86-.12,1.27-.24.72.22,1.48.31,2.3.28.2,0,.4-.01.61-.04.44-.05.88-.12,1.31-.24.91-.24,1.76-.64,2.52-1.16.11-.07.22-.15.32-.23,1.65-1.22,2.83-3.05,3.17-5.14.28-1.71.09-3.29-.57-4.71-.87-1.92-2.58-3.55-5.05-4.86.12-.05.26-.09.38-.13.81-.26,1.6-.45,2.41-.56,1.42-.22,2.83-.21,4.18,0,.84.11,1.69.31,2.5.57,5.72,1.85,10.26,7.07,11.01,13.32.98,8.11-4.12,15.21-11.33,17.35Z"/>
  <path class="cls-2" d="M358.91,620.4c-.07.17-.17.33-.27.48l-14.1,20.11-7.83,11.17-.32.45-8.47.02h-9.08s-4.04-5.42-4.04-5.42c14.1-6.4,26.06-15.99,36-27.96-8.05-9.68-17.38-17.79-28.14-23.95l-7.88-4,3.99-5.42h9.06s8.54.02,8.54.02l.29.42,7.8,11.14,14.47,20.64s.06.09.07.13c.35.62.21,1.49-.12,2.17Z"/>
  <path class="cls-2" d="M309.12,618.79v.06c.13,5.64-2.63,10.64-6.91,13.59-.01.01-.04.02-.05.04-.66.47-1.36.87-2.09,1.22-.78.38-1.6.7-2.45.94-.11.04-.2.06-.32.09-.11.04-.22.06-.33.09-.23.06-.46.12-.71.17h-.01c-.35.07-.72.12-1.09.17-.06.01-.12.01-.18.02-.93.12-1.88.16-2.86.1-9.85-.6-17.54-10.3-14.34-20.59.97,1.6,2.02,2.95,3.22,3.94.76.61,1.55,1.1,2.43,1.41.05.01.1.04.15.05.43.15.87.24,1.33.31.2.04.4.05.61.06s.43.02.65.01c.22,0,.44-.01.67-.04.38-.04.75-.11,1.11-.21.05-.01.11-.02.16-.04.38-.1.76-.22,1.13-.38.26-.11.5-.23.73-.37.05.02.09.05.13.07.42.23.84.43,1.3.57.15.05.31.1.46.13,0,.01.01,0,.01,0,.47.13.95.21,1.47.23.21.01.43.02.65.01.22,0,.44-.01.67-.04.33-.04.67-.09.99-.18.1-.01.18-.04.28-.06.34-.09.67-.2.99-.33.2.1.39.17.59.23.39.13.8.23,1.21.28.23.05.49.07.73.09.21.01.43.02.65.01.22,0,.44-.01.67-.04.43-.05.86-.12,1.27-.24.77-.2,1.5-.51,2.18-.93.12-.06.23-.13.34-.21,1.82-1.22,3.14-3.16,3.51-5.39v-.05c.47,1.17.77,2.41.93,3.68.05.5.09,1.02.1,1.5Z"/>
  <path class="cls-10" d="M313.05,618.85c.13,5.64-2.63,10.64-6.91,13.59-1,.71-2.08,1.3-3.23,1.74-.44.18-.89.33-1.36.46-.11.04-.2.06-.32.09-.15.05-.29.09-.44.12-.55.13-1.13.23-1.7.31-.06.01-.11.01-.17.02-.93.12-1.9.16-2.87.1-.35-.02-.71-.06-1.06-.1-.39-.05-.78-.12-1.16-.2h-.01c-7.07-1.46-12.55-7.62-12.82-14.95-.02-.46-.01-.94.01-1.41.06-1.3.29-2.62.71-3.94.95,1.59,2.01,2.92,3.19,3.9.6.5,1.22.91,1.9,1.21.23.11.46.2.71.28.15.05.29.1.45.13.21.06.42.1.62.13.28.05.57.09.87.1.21.01.43.02.65.01.22,0,.44-.01.67-.04.37-.04.75-.1,1.1-.21,0,.01.01,0,.01,0,.47.13.95.21,1.47.23.21.01.43.02.65.01.22,0,.44-.01.67-.04.33-.04.67-.09.99-.18.44.12.89.18,1.36.21.21.01.43.02.65.01.22,0,.44-.01.67-.04.13-.01.27-.04.39-.06.29-.04.59-.1.88-.18.77-.2,1.5-.51,2.18-.93.12-.06.23-.13.34-.21,1.82-1.22,3.14-3.16,3.51-5.39v-.05c.67-4.01-1.33-7.25-5.63-9.52.38-.13.75-.24,1.13-.34.13.02.27.06.4.11.12.02.24.06.37.1,2.86.93,5.42,2.69,7.35,4.99,1.97,2.32,3.29,5.21,3.67,8.34.06.53.1,1.05.11,1.57Z"/>
  <path class="cls-3" d="M279.39,643.41l7.56,3.77-3.88,5.46v.02s-.02.01-.02.01l-31.55-.05-22.4-31.95c-.56-.82-.58-1.99,0-2.81l21.66-30.93c.37-.53,1.39-1.08,2.04-1.08h18.14s12.1.01,12.1.01c1.54,1.8,2.84,3.63,3.94,5.49l-7.58,3.79c-10.84,6.17-20.27,14.36-28.39,24.09,8.11,9.84,17.6,17.88,28.38,24.17Z"/>
  <path class="cls-3" d="M372.58,620.88l-22.24,31.73-13.27.04h-9.11s-9.08.04-9.08.04h-.01s-.01-.04-.01-.04l-4.04-5.43c14.1-6.4,26.06-15.99,36-27.96-8.05-9.68-17.38-17.79-28.14-23.95l-7.88-4,3.99-5.42v-.02s.02-.01.02-.01h9.06s9.14.04,9.14.04l13.32.02,22.56,32.2c.55.78.2,2.04-.32,2.78Z"/>
  <path class="cls-3" d="M316.95,618.85c.13,5.64-2.63,10.64-6.91,13.59-1.38.98-2.94,1.72-4.59,2.2-.11.04-.21.06-.32.09-.69.21-1.41.34-2.14.43-.99.15-2.01.18-3.05.12-.34-.02-.69-.05-1.03-.1-.61-.07-1.21-.18-1.8-.33l-.15-.04c-1.05-.27-2.07-.65-3.02-1.11-5.06-2.46-8.7-7.49-9.04-13.31v-.04c-.05-.53-.05-1.05-.02-1.58,0-.06,0-.12.01-.18.07-1.27.31-2.58.71-3.9.4.68.84,1.32,1.28,1.91.93,1.2,1.94,2.18,3.08,2.84.05.02.09.05.13.07.42.23.84.43,1.3.57.15.05.31.1.46.13,0,.01.01,0,.01,0,.47.13.95.21,1.47.23.21.01.43.02.65.01.22,0,.44-.01.67-.04.33-.04.67-.09.99-.18.1-.01.18-.04.28-.06.34-.09.67-.2.99-.33.42-.16.81-.37,1.19-.6.12-.06.23-.13.34-.21,1.82-1.22,3.14-3.16,3.51-5.39v-.05c.67-4.01-1.33-7.25-5.63-9.52.38-.13.75-.24,1.13-.34,1.98-.54,3.96-.64,5.86-.35.72.1,1.43.24,2.12.46.12.02.24.06.37.1,5.74,1.86,10.28,7.08,11.02,13.33.06.53.1,1.05.11,1.57Z"/>
</svg>