<?xml version="1.0" encoding="UTF-8"?>
<svg id="Layer_1" xmlns="http://www.w3.org/2000/svg" version="1.1" viewBox="0 0 1080 1350">
  <!-- Generator: Adobe Illustrator 30.3.0, SVG Export Plug-In . SVG Version: 2.1.3 Build 182)  -->
  <defs>
    <style>
      .st0 {
        fill: #f3a5a5;
      }
    </style>
  </defs>
  <path class="st0" d="M745.75,351.72l-33.69,25.01c-39.35-86.79-98.39-160.37-172.15-221.63-59.57,49.55-109.51,107.05-147.51,173.19l-24.64,48.57-33.52-24.73.35-194.08L532.82,19.12c4.8-3.37,12.58-1.21,17.11,1.97l195.38,136.97.45,193.66Z"/>
  <path class="st0" d="M745.75,658.03l-33.69,25.01c-39.35-86.79-98.39-160.37-172.15-221.63-59.57,49.55-109.51,107.05-147.51,173.19l-24.64,48.57-33.52-24.73.35-194.08,198.22-138.92c4.8-3.37,12.58-1.21,17.11,1.97l195.38,136.97.45,193.66Z"/>
  <path class="st0" d="M745.75,986.25l-33.69,25.01c-39.35-86.79-98.39-160.37-172.15-221.63-59.57,49.55-109.51,107.05-147.51,173.19l-24.64,48.57-33.52-24.73.35-194.08,198.22-138.92c4.8-3.37,12.58-1.21,17.11,1.97l195.38,136.97.45,193.66Z"/>
  <path class="st0" d="M745.75,1307.44l-33.69,25.01c-39.35-86.79-98.39-160.37-172.15-221.63-59.57,49.55-109.51,107.05-147.51,173.19l-24.64,48.57-33.52-24.73.35-194.08,198.22-138.92c4.8-3.37,12.58-1.21,17.11,1.97l195.38,136.97.45,193.66Z"/>
</svg>